<svg width="24" height="24" viewBox="0 0 24 24" fill="none" xmlns="http://www.w3.org/2000/svg">
<path d="M5.6155 20C5.15517 20 4.77083 19.8458 4.4625 19.5375C4.15417 19.2292 4 18.8448 4 18.3845V5.6155C4 5.15517 4.15417 4.77083 4.4625 4.4625C4.77083 4.15417 5.15517 4 5.6155 4H12.1155C12.2572 4 12.3759 4.048 12.4718 4.144C12.5676 4.24 12.6155 4.35892 12.6155 4.50075C12.6155 4.64258 12.5676 4.76125 12.4718 4.85675C12.3759 4.95225 12.2572 5 12.1155 5H5.6155C5.436 5 5.2885 5.05767 5.173 5.173C5.05767 5.2885 5 5.436 5 5.6155V18.3845C5 18.564 5.05767 18.7115 5.173 18.827C5.2885 18.9423 5.436 19 5.6155 19H18.3845C18.564 19 18.7115 18.9423 18.827 18.827C18.9423 18.7115 19 18.564 19 18.3845V11.8845C19 11.7428 19.048 11.6241 19.144 11.5283C19.24 11.4324 19.3589 11.3845 19.5008 11.3845C19.6426 11.3845 19.7613 11.4324 19.8568 11.5283C19.9523 11.6241 20 11.7428 20 11.8845V18.3845C20 18.8448 19.8458 19.2292 19.5375 19.5375C19.2292 19.8458 18.8448 20 18.3845 20H5.6155ZM6.76925 16.3845H17.2307L14 12.077L11 15.8655L9 13.4615L6.76925 16.3845ZM17 7H15.5C15.3583 7 15.2396 6.952 15.1438 6.856C15.0479 6.76 15 6.64108 15 6.49925C15 6.35742 15.0479 6.23875 15.1438 6.14325C15.2396 6.04775 15.3583 6 15.5 6H17V4.5C17 4.35833 17.048 4.23958 17.144 4.14375C17.24 4.04792 17.3589 4 17.5008 4C17.6426 4 17.7613 4.04792 17.8568 4.14375C17.9523 4.23958 18 4.35833 18 4.5V6H19.5C19.6417 6 19.7604 6.048 19.8563 6.144C19.9521 6.24 20 6.35892 20 6.50075C20 6.64258 19.9521 6.76125 19.8563 6.85675C19.7604 6.95225 19.6417 7 19.5 7H18V8.5C18 8.64167 17.952 8.76042 17.856 8.85625C17.76 8.95208 17.6411 9 17.4992 9C17.3574 9 17.2387 8.95208 17.1432 8.85625C17.0477 8.76042 17 8.64167 17 8.5V7Z" fill="#888CA7"/>
</svg>
