<svg width="24" height="24" viewBox="0 0 24 24" fill="none" xmlns="http://www.w3.org/2000/svg">
<path d="M4.6155 19C4.15517 19 3.77083 18.8458 3.4625 18.5375C3.15417 18.2291 3 17.8448 3 17.3845V6.61548C3 6.15514 3.15417 5.77081 3.4625 5.46248C3.77083 5.15414 4.15517 4.99998 4.6155 4.99998H13.9423C14.0846 4.99998 14.2067 5.05098 14.3087 5.15298C14.4106 5.25481 14.4551 5.37689 14.4423 5.51923C14.4294 5.64873 14.3753 5.76123 14.2798 5.85673C14.1843 5.95223 14.0718 5.99998 13.9423 5.99998H4V17.3845C4 17.564 4.05767 17.7115 4.173 17.827C4.2885 17.9423 4.436 18 4.6155 18H19.3845C19.564 18 19.7115 17.9423 19.827 17.827C19.9423 17.7115 20 17.564 20 17.3845V11C20 10.8576 20.0477 10.7387 20.1432 10.6432C20.2387 10.5477 20.3577 10.5 20.5 10.5C20.6423 10.5 20.7613 10.5477 20.8568 10.6432C20.9523 10.7387 21 10.8576 21 11V17.3845C21 17.8448 20.8458 18.2291 20.5375 18.5375C20.2292 18.8458 19.8448 19 19.3845 19H4.6155ZM12 11L15.2828 8.86548C15.4134 8.77948 15.5348 8.75473 15.647 8.79123C15.7593 8.82789 15.8482 8.89939 15.9135 9.00573C15.9788 9.11223 16.0045 9.22248 15.9905 9.33648C15.9763 9.45064 15.9038 9.55064 15.773 9.63648L12.4287 11.8287C12.2877 11.9159 12.1448 11.9627 12 11.9692C11.8552 11.9756 11.7123 11.9351 11.5713 11.848L4 7.09623V5.99998L12 11ZM19 8.26923C18.3077 8.26923 17.7179 8.02564 17.2307 7.53848C16.7436 7.05131 16.5 6.46156 16.5 5.76923C16.5 5.07689 16.7436 4.48714 17.2307 3.99998C17.7179 3.51281 18.3077 3.26923 19 3.26923C19.6923 3.26923 20.2821 3.51281 20.7693 3.99998C21.2564 4.48714 21.5 5.07689 21.5 5.76923C21.5 6.46156 21.2564 7.05131 20.7693 7.53848C20.2821 8.02564 19.6923 8.26923 19 8.26923Z" fill="#E0E0E0"/>
</svg>
